<svg id="Layer_1" xmlns="http://www.w3.org/2000/svg" xmlns:xlink="http://www.w3.org/1999/xlink" viewBox="0 0 254.7 58.7"><style>.st0{clip-path:url(#SVGID_2_)}</style><defs><path id="SVGID_1_" d="M36.6 44.7c3.1 0 6.1-.5 8.7-1.4.7-.2 1.3-.5 1.9-.7-.7 1.8-1.8 3.3-3.2 4.4-2.7 2-6 3.4-9.5 3.9.8-1.5 1.5-3.7 2.1-6.2M21.9 49c-.1-.1-.1-.1-.2-.1-1.2-.6-1.7-3.3-1.1-7.5 2.3 1.1 4.9 1.9 7.6 2.5 2 .4 4.1.7 6.1.8-1 4.2-2.2 6.5-3 6.5h-.2c-3.3-.1-6.4-.8-9.2-2.2M10.6 35.5c-.2-.7-.3-1.4-.4-2.2.7 1 1.6 2.1 2.7 3.1 1.6 1.5 3.5 2.8 5.7 4-.4 2.4-.6 4.6-.3 6.4-3.7-2.8-6.4-6.7-7.7-11.3M38 29.6V27c2.7-.2 5.3-.9 7.4-2.1 1.9 3.8 3 7.8 2.9 11.6 0 1.1-.1 2.1-.3 3.1-1 .6-2.1 1.1-3.4 1.6-2.3.8-4.8 1.2-7.6 1.3.7-3.9 1-8.5 1-12.9m-9.3 12.1c-2.7-.6-5.3-1.5-7.6-2.5.8-3.4 2.2-7.6 4.5-12.3.3-.7.7-1.3 1-2 1.6.7 3.3 1.3 5.1 1.7 1.4.3 2.7.5 4.1.5v2.6c0 5.2-.4 9.5-1 12.9-2-.2-4-.5-6.1-.9m-14.3-6.9c-1.9-1.7-3.2-3.6-3.8-5.4.5-2 1.5-4.1 3-6 1.4-1.9 3.1-3.5 5.2-5 .6 1 1.4 2.1 2.4 3 1 .9 2.1 1.7 3.4 2.5-.3.7-.7 1.3-1 2-2 4-3.5 8.3-4.5 12.2-1.8-1-3.3-2.1-4.7-3.3m22.1-20.5c2.5 1.9 4.8 4.3 6.7 7.1.4.5.7 1.1 1 1.6-1.8 1-4 1.6-6.4 1.8-.2-3.8-.6-7.4-1.3-10.5m-4.4 10.1c-1.6-.3-3.1-.8-4.5-1.4 2.1-3.6 4.3-6.7 6.5-9 .7 2.7 1.3 6.4 1.5 10.9-1.1-.1-2.3-.2-3.5-.5m-9.4-4.6c-.9-.9-1.6-1.7-2.1-2.6 2.1-1.2 4.3-2.3 6.8-3 1.4-.4 2.9-.8 4.4-1-2.1 2.4-4.2 5.4-6.1 8.8-1.2-.7-2.2-1.4-3-2.2m-4.7-7c0 .1-.1.2-.1.3-.2 1-.2 2.1.1 3.2-2.4 1.6-4.4 3.6-6.1 5.7-.5.7-.9 1.3-1.4 2 1.2-4.4 3.9-8.4 7.5-11.2m2 .8c.2-1.1.9-2.2 2-3 2.6-.8 5.6-.6 8.7.6-1.3.2-2.6.5-4 .9-2.4.7-4.7 1.7-6.8 2.9 0-.4 0-.9.1-1.4m17.9-2.9c.8-.5 1.5-.8 2-1 1.1.4 2.2 1 3.2 1.7-1.6-.3-3.4-.6-5.2-.7m-3.7-2.3c.9 0 1.8.2 2.8.4-.6.3-1.2.7-1.9 1.2-.3-.6-.6-1.2-.9-1.6m-2.4.8c-1-.4-2-.7-3-.9.8-.1 1.6-.1 2.4-.1.4 0 .8.5 1.3 1.3-.2-.1-.5-.2-.7-.3M7.6 29.7c0 2.3.3 4.4.9 6.5 0 .1.1.3.1.4v.1c3 9.7 12 16.7 22.6 16.7 4.9 0 9.5-1.5 13.3-4.1 0 0 .1 0 .1-.1.2-.2.4-.3.7-.5 4.4-3.2 7.6-7.9 8.9-13.3.1-.2.1-.5.2-.8v-.2c.3-1.6.5-3.2.5-4.8 0-3.2-.6-6.3-1.9-9.2-.2-.6-.9-.8-1.4-.6-.6.2-.8.9-.6 1.4 1.1 2.6 1.7 5.5 1.7 8.4 0 1.8-.2 3.5-.6 5.2-.3 1-.9 2-1.7 2.9v-1.1c0-4.2-1.2-8.7-3.3-12.9 1.6-1.4 2.6-3 3-4.9.1-.6-.3-1.2-.9-1.3-.6-.1-1.2.3-1.3.9-.2 1.2-.9 2.4-1.9 3.4-.3-.5-.6-1-1-1.5-1.9-2.8-4.2-5.3-6.7-7.2 3.3.2 6.4 1 8.9 2.4.4.2.9.2 1.3-.1.5-.4.5-1.1.1-1.6C45 8.7 38.8 6 31.2 6 18.2 6 7.6 16.6 7.6 29.7"/></defs><use xlink:href="#SVGID_1_" overflow="visible"/><clipPath id="SVGID_2_"><use xlink:href="#SVGID_1_" overflow="visible"/></clipPath><path class="st0" d="M7.6 6H55v47.4H7.6z"/><path d="M243.7 22.7c3.5 0 5.4 1.7 5.4 4.8 0 2.9-1.9 4.6-5.1 4.6h-2.2v4.4h-3V22.7h4.9zm-1.9 7h1.8c1.7 0 2.6-.7 2.6-2.2 0-1.5-.9-2.3-2.7-2.3h-1.7v4.5zm-8.4 1.3c0 2-.8 3-2.4 3-1.6 0-2.4-1-2.4-3v-8.3h-3v8.1c0 2 .5 3.5 1.5 4.5.9.9 2.2 1.4 3.9 1.4 2.4 0 5.3-1 5.3-5.9v-8.1h-2.9V31zm-15.8-8.4c3 0 6.2 1.9 6.2 7.1 0 5.2-3.2 7-6.2 7s-6.2-1.8-6.2-7 3.2-7.1 6.2-7.1m0 11.5c1.2 0 3.1-.6 3.1-4.4 0-3.9-2-4.4-3.1-4.4-2 0-3.2 1.6-3.2 4.4 0 2.8 1.2 4.4 3.2 4.4m-9.2-1.7c.5 1 .9 1.8 1.9 1.8h.7v2.3h-.1s-.5.1-1.4.1c-2.3 0-3-1.6-3.7-3-.5-1.2-1-2.2-2.2-2.2h-1.3v5.1h-2.9V22.7h4.9c3.6 0 5.3 1.4 5.3 4.4 0 1.9-1.1 3-2.2 3.5.3.5.6 1.2 1 1.8m-6.2-3.2h1.6c1.6 0 2.7-.8 2.7-2 0-1.3-.9-2-2.4-2h-1.9v4zm-10.8 2.3h3v.2c0 .9-.3 2.4-2.4 2.4-2 0-3.2-1.6-3.2-4.4 0-2.8 1.1-4.4 3.1-4.4 2.4 0 2.5 2.4 2.5 2.5v.2l2.8-.4v-.1c0-1-.9-4.7-5.3-4.7-3.9 0-6.1 2.6-6.1 7.1 0 4.4 2.3 7 6.2 7 3.9 0 5.3-2.7 5.3-5v-2.4h-5.8v2zm-8.8-8.8h-3.5l-4.6 6.2v-6.2h-3v13.8h3v-6.4l4.7 6.4h3.5l-5.4-7 5.3-6.8zm-16.7 8.6l-4.8-8.6h-3v13.8h3v-8.3l4.8 8.3h3V22.7H166v8.6zm-13.6-8.5l5 13.8h-3.1l-1.2-3.4h-4.6l-1.1 3.4h-3.1l5.1-13.8h3zm-1.5 3.7l-1.5 4.4h3l-1.5-4.4zm-9.3 2.8c1.1.3 2.5 1.3 2.5 3.4 0 2.5-1.8 3.9-4.9 3.9h-5.8V22.7h5.3c3 0 4.5 1.3 4.5 3.7-.1 2-.9 2.7-1.6 2.9m-3.3-.9c1.2 0 1.8-.5 1.8-1.6s-.7-1.6-2.2-1.6h-1.6v3.2h2zm-2 5.7h2.3c1.5 0 2.2-.6 2.2-1.8 0-1.5-1.2-1.8-2.3-1.8h-2.2v3.6zm-15.1-11.4c4.3 0 6.9 2.7 6.9 7.2 0 4.3-2.3 6.7-6.3 6.7H117V22.7h4.1zm-1.2 11.4h1.7c2.1 0 3.4-1.6 3.4-4.3 0-3.1-1.3-4.7-4-4.7h-1.1v9zm-10.3-11.4h-3v13.8h8.9v-2.4h-6V22.7zm-6.9 9.7c.5 1 .9 1.8 1.9 1.8h.7v2.3h-.1s-.5.1-1.4.1c-2.3 0-3-1.6-3.7-3-.5-1.2-1-2.2-2.2-2.2h-1.3v5.1h-2.9V22.7h4.9c3.6 0 5.3 1.4 5.3 4.4 0 1.9-1.1 3-2.2 3.5.4.5.7 1.2 1 1.8m-6.1-3.2h1.6c1.6 0 2.7-.8 2.7-2 0-1.3-.9-2-2.4-2h-1.9v4zm-10.8-6.6c3 0 6.2 1.9 6.2 7.1 0 5.2-3.2 7-6.2 7s-6.2-1.8-6.2-7 3.2-7.1 6.2-7.1m0 11.5c1.2 0 3.1-.6 3.1-4.4 0-3.9-2-4.4-3.1-4.4-2 0-3.2 1.6-3.2 4.4 0 2.8 1.1 4.4 3.2 4.4m-10-11.4h3.3l-4 13.8h-3.3l-2.4-8.7-2.4 8.8h-3.3l-4-13.8h3.4l2.3 10.1 2.8-10.1h2.5l2.7 10.1 2.4-10.2z"/></svg>